<?xml version="1.0" encoding="utf-8"?>
<!-- Generator: Adobe Illustrator 21.0.2, SVG Export Plug-In . SVG Version: 6.00 Build 0)  -->
<svg version="1.1" id="Layer_1" xmlns="http://www.w3.org/2000/svg" xmlns:xlink="http://www.w3.org/1999/xlink" x="0px" y="0px"
	 viewBox="0 0 400 150" style="enable-background:new 0 0 400 150;" xml:space="preserve">
<style type="text/css">
	.st0{fill:#113952;}
</style>
<g>
	<g>
		<g>
			<path class="st0" d="M111.2,11.9c0.8-0.2,1.5-0.3,1.8-0.3c0.3,0,0.9-0.1,1.8,0c0.4,6.7,0.7,10,1.1,16.6c2.8-0.2,4.1-0.3,6.9-0.4
				c0.3,0.9,0.3,1.2,0.3,1.5c0,0.4,0,0.6-0.1,1.5c-4.2,0.3-6.3,0.4-10.5,0.7C112.1,25,111.6,18.5,111.2,11.9z"/>
			<path class="st0" d="M139.1,29.5c-0.6,0.4-1.4,0.6-2,0.6c-0.4,0-1,0-1.7-0.2c-0.6-2.3-0.9-3.5-1.5-5.8c-1.7,0.1-2.5,0.1-4.2,0.2
				c-0.4,2.4-0.5,3.5-0.9,5.9c-0.7,0.3-1.3,0.3-1.7,0.3c-0.6,0-1.4-0.1-2.1-0.4c1.1-6.4,2.2-12.8,3.3-19.2c1.2-0.5,1.7-0.5,2.6-0.6
				c0.9,0,1.4-0.1,2.7,0.3C135.5,17,137.3,23.3,139.1,29.5z M133,20.9c-0.7-2.5-1-3.8-1.7-6.4c-0.4,2.6-0.6,3.9-1,6.5
				C131.3,21,131.9,20.9,133,20.9z"/>
			<path class="st0" d="M160,15.8c0.2,6.4-2.9,6.7-6.7,6.9c-0.6,0-0.9,0-1.5,0.1c0.1,2.6,0.2,3.9,0.3,6.5c-0.8,0.2-1.5,0.3-1.8,0.3
				c-0.3,0-0.9,0-1.8-0.1c-0.3-6.6-0.6-13.1-0.9-19.7c2.1-0.1,3.1-0.1,5.1-0.2C156.6,9.3,159.8,9.4,160,15.8z M156.4,16
				c-0.1-3.1-2-3.2-3.5-3.2c-0.6,0-0.9,0-1.5,0.1c0.1,2.8,0.2,4.1,0.3,6.9c0.6,0,0.9,0,1.4-0.1C154.6,19.6,156.5,19,156.4,16z"/>
			<path class="st0" d="M162.6,9.1c2.1-0.1,3.2-0.1,5.3-0.2c3.8-0.1,7,0,7.1,6.5c0.1,3.3-0.8,4.9-2.1,5.8c0.9,2.8,1.4,4.2,2.3,7
				c-0.6,0.3-1.3,0.5-2,0.5c-0.4,0-1,0-1.7-0.2c-0.9-2.5-1.3-3.8-2.2-6.3c-1.1,0-1.7,0-2.8,0.1c0.1,2.6,0.1,3.9,0.2,6.4
				c-0.8,0.2-1.5,0.2-1.8,0.3c-0.3,0-0.9,0-1.8-0.1C163.1,22.2,162.8,15.7,162.6,9.1z M171.5,15.5c-0.1-3.1-2-3.2-3.5-3.2
				c-0.6,0-1,0-1.6,0c0.1,2.8,0.1,4.1,0.2,6.9c0.7,0,1,0,1.7,0C169.7,19.1,171.5,18.5,171.5,15.5z"/>
			<path class="st0" d="M178.4,21.2c0-2.1-0.1-3.1-0.1-5.2c-0.1-4.5,0.2-7.6,6.6-7.7c6.4-0.1,6.8,2.9,6.9,7.5c0,2.1,0,3.1,0.1,5.2
				c0.1,4.5-0.3,7.6-6.6,7.7C179,28.7,178.5,25.7,178.4,21.2z M181.9,16c0,2,0.1,3,0.1,5c0.1,3.2,0.1,4.3,3.2,4.2
				c3.1-0.1,3.1-1.1,3-4.4c0-2,0-3-0.1-5c0-3.2-0.1-4.4-3.2-4.3C181.8,11.6,181.9,12.8,181.9,16z"/>
			<path class="st0" d="M202.4,28c-1.4-6.5-2.1-9.7-3.6-16.2c0.1,6.5,0.1,9.7,0.2,16.2c-0.8,0.3-1.5,0.3-1.9,0.3c-0.6,0-1,0-1.7-0.4
				c-0.1-6.3-0.1-12.7-0.2-19c1.4-0.5,1.9-0.5,2.8-0.5c0.9,0,2,0,3.3,0.4c1.1,4.5,1.7,6.8,2.9,11.3c1.1-4.5,1.6-6.8,2.7-11.4
				c1.3-0.4,2.4-0.4,3.3-0.4c0.9,0,1.4,0,2.8,0.5c0,6.3,0,12.7,0,19c-0.7,0.4-1.2,0.4-1.7,0.4c-0.4,0-1,0-1.9-0.3
				c0-6.5,0-9.7,0-16.2c-1.4,6.5-2,9.7-3.4,16.3c-0.8,0.2-1.4,0.2-1.8,0.3C203.7,28.2,203.2,28.2,202.4,28z"/>
			<path class="st0" d="M220.1,19.7c0,2.2,0,3.2,0,5.4c3,0,4.5,0,7.5,0.1c0.2,0.7,0.2,1,0.2,1.3c0,0.4,0,1-0.2,1.7
				c-4.4,0-6.6-0.1-11.1-0.1c0-6.6,0-13.3,0-19.9c4.5,0,6.7,0,11.2,0.1c0.2,0.9,0.2,1.4,0.2,1.7c0,0.5,0,1.2-0.1,1.6
				c-3.1,0-4.6,0-7.6-0.1c0,2,0,3.1,0,5.1c2.5,0,3.8,0,6.3,0c0.2,0.7,0.2,1,0.2,1.3c0,0.4,0,1-0.2,1.7
				C223.9,19.8,222.6,19.8,220.1,19.7z"/>
			<path class="st0" d="M241.8,8.8c0.8-0.2,1.5-0.2,1.9-0.2c0.6,0,1.1,0,1.8,0.4c-0.1,6.3-0.3,12.7-0.4,19c-1.3,0.5-2.3,0.4-3.2,0.4
				c-0.5,0-2,0-2.8-0.3c-1.7-6.3-2.6-9.4-4.4-15.7c-0.1,6.2-0.1,9.4-0.2,15.6c-0.8,0.3-1.5,0.3-1.9,0.3c-0.6,0-1,0-1.7-0.5
				c0.1-6.3,0.2-12.7,0.2-19c1.3-0.5,1.9-0.5,2.8-0.4c0.9,0,2.1,0,3.3,0.4c1.7,6.4,2.6,9.5,4.3,15.9
				C241.6,18.4,241.6,15.2,241.8,8.8z"/>
			<path class="st0" d="M261.6,28.4c-0.7,0.3-1.5,0.5-2.1,0.5c-0.4,0-1,0-1.7-0.3c-0.4-2.4-0.6-3.5-1.1-5.9c-1.7,0-2.5-0.1-4.2-0.1
				c-0.6,2.3-0.8,3.5-1.4,5.8c-0.7,0.2-1.3,0.2-1.7,0.2c-0.6,0-1.4-0.2-2-0.6c1.6-6.3,3.2-12.6,4.9-18.8c1.3-0.4,1.7-0.4,2.7-0.4
				c0.9,0,1.4,0,2.7,0.5C259,15.7,260.3,22.1,261.6,28.4z M256.1,19.4c-0.5-2.6-0.7-3.9-1.2-6.5c-0.6,2.6-0.9,3.8-1.5,6.4
				C254.5,19.3,255.1,19.3,256.1,19.4z"/>
			<path class="st0" d="M264.1,29c0.2-6.6,0.5-13.3,0.7-19.9c1.8,0.1,2.8,0.1,4.6,0.2c5.3,0.2,8.6,2.2,8.3,7.9
				c-0.1,1.9-0.1,2.9-0.2,4.9c-0.2,5.6-3.7,7.4-8.9,7.2C266.8,29.1,265.9,29.1,264.1,29z M268.3,12.6c-0.2,5.4-0.3,8.1-0.5,13.5
				c0.4,0,0.6,0,1,0c3,0.1,5-1.5,5.1-4.1c0.1-2.1,0.1-3.2,0.2-5.3c0.1-2.6-1.6-4-4.8-4.1C268.9,12.6,268.7,12.6,268.3,12.6z"/>
			<path class="st0" d="M284.4,21.4c-0.1,2.2-0.2,3.2-0.3,5.4c3,0.1,4.5,0.2,7.5,0.4c0.2,0.7,0.2,1,0.1,1.3c0,0.4-0.1,1-0.3,1.7
				c-4.4-0.2-6.6-0.3-11.1-0.5c0.3-6.6,0.6-13.3,0.9-19.9c4.5,0.2,6.7,0.3,11.2,0.5c0.2,0.9,0.1,1.4,0.1,1.7c0,0.5-0.1,1.1-0.2,1.6
				c-3.1-0.2-4.6-0.2-7.6-0.4c-0.1,2-0.1,3.1-0.2,5.1c2.5,0.1,3.8,0.2,6.3,0.3c0.2,0.7,0.2,1,0.1,1.3c0,0.4,0,1-0.3,1.7
				C288.2,21.6,286.9,21.6,284.4,21.4z"/>
			<path class="st0" d="M302.3,30.9c0.4-6.6,0.8-13.3,1.2-19.9c1.8,0.1,2.8,0.2,4.6,0.3c5.3,0.3,8.5,2.4,8.1,8.1
				c-0.1,1.9-0.2,2.9-0.3,4.8c-0.4,5.6-3.9,7.3-9.1,6.9C305,31,304.1,31,302.3,30.9z M306.9,14.5c-0.3,5.4-0.5,8.1-0.8,13.5
				c0.4,0,0.6,0,1,0.1c3,0.2,5-1.4,5.2-3.9c0.1-2.1,0.2-3.2,0.4-5.3c0.2-2.6-1.5-4.1-4.7-4.3C307.5,14.6,307.3,14.6,306.9,14.5z"/>
			<path class="st0" d="M322.8,23.8c-0.2,2.2-0.2,3.2-0.4,5.4c3,0.2,4.5,0.3,7.5,0.6c0.1,0.7,0.1,1,0.1,1.3c0,0.4-0.1,1-0.3,1.7
				c-4.4-0.3-6.6-0.5-11-0.8c0.5-6.6,0.9-13.2,1.4-19.9c4.5,0.3,6.7,0.5,11.2,0.8c0.1,0.9,0.1,1.4,0.1,1.7c0,0.5-0.1,1.2-0.3,1.6
				c-3-0.2-4.6-0.4-7.6-0.6c-0.1,2-0.2,3-0.4,5.1c2.5,0.2,3.8,0.3,6.3,0.5c0.1,0.7,0.1,1,0.1,1.3c0,0.4-0.1,1-0.3,1.7
				C326.6,24,325.3,24,322.8,23.8z"/>
			<path class="st0" d="M338.9,30.7c1.9,0.2,3.3,0.1,3.5-2.8c0.2-2.8-8.9-2.6-8.3-9.1c0.3-4.2,2.7-5.5,7.5-5.1
				c1.9,0.2,4.6,0.8,5,1.4c0.3,0.5-0.7,2.9-1.2,3c-0.5,0.1-2.1-1-4-1.2c-2.1-0.2-3.5-0.1-3.7,2.1c-0.3,3.1,8.9,3,8.3,9.1
				c-0.5,5.7-3.8,5.9-7.4,5.5c-2.1-0.2-5.3-1.1-5.7-2.4c-0.2-0.6,1.2-2.7,1.6-2.7C335.2,28.6,337.6,30.6,338.9,30.7z"/>
		</g>
	</g>
	<g>
		<g>
			<path class="st0" d="M52,56.5c0.7-2,1.8-2.7,3.8-2.5c1.5,0.2,2,0.7,1.8,2.2c-0.3,2.8-1.5,5.7-3.1,8.2c-1.4,2.2-1.8,4.5-1.3,7
				c2,8.5,2.9,17.1,2.9,25.9c0,4.6,0.6,9.6,0.4,14.2c-0.1,3.5-0.9,7.3-1.5,10.8c-0.5,2.9-0.9,6-2,8.4c-1.5,3.3-2.8,7.1-5.5,10
				c-3,3.2-6.8,5.3-11.1,5.6c-6.8,0.5-13.9-1.9-18.3-7.1c-3.8-4.5-7.3-9.4-10.1-14.5c-0.4-0.7-0.6-1.3-1-1.9c-1.3-1.8-2.6-4-2-6.4
				c0.3-1.4-0.2-2.6-0.8-3.6c-1-1.5-1.3-3.3-1.5-5c-0.3-2-0.7-4.5-1-6.4c-0.8-4.9-1.4-10.7,0.1-15.2c0.3-1,0.6-2,0.6-3.2
				c0-2.1,0.7-4.4,1.5-6.2c0.6-1.4,0.8-3.2,1.4-4.8c1.2-3.5,3.6-6.9,6.1-9.6c1.9-2.1,4.8-3.9,7.3-5.2c3.1-1.6,6.8-2.9,10.3-4
				c4.8-1.5,10.3-0.6,14.3,2.6c1.5,1.2,2.8,2.8,4.2,4.2c0.5,0.5,1.5,1.8,1.8,1.8C50,61.7,51.4,58.2,52,56.5z M28.4,59
				c-0.4,0.1-0.6,0.3-1,0.6c-2.3,1.6-4.2,4-4.9,6.6c-0.6,2.5-1.3,5.4-1.7,8.1C20,81,19.8,87.3,20,94.1c0.1,2.6,0.3,5.1,0.9,7.6
				c1.2,5.4,2.6,11,4.1,16.4c1.2,4.3,2.7,8.6,4.2,12.8c0.9,2.5,2.4,4.8,4.5,6.5c1.7,1.3,3.8,2.7,6,1.9c2.9-1.1,5.6-3.5,6.8-6.9
				c0.8-2.4,1.4-4.8,1.9-7.3c1.7-8.3,2.6-16.5,1.5-24.7c-0.2-1.8-0.8-3.5-0.9-5.3c-0.3-6.3-0.9-12.4-2.1-18.7
				c-0.1-0.7-0.5-2.3-0.6-2.4c-0.2-0.1-1.8,0.7-2.7,0.8c-0.8,0.1-1.9,0.5-2.7,0.5c-5.4-0.1-10.8-3.9-11.4-9.5
				c-0.2-2.2,0.1-6.1-0.4-6.7C29.2,58.9,28.6,58.9,28.4,59z M35.8,67.3c0.1,0.3,0.4,0.7,0.6,0.8c2,1.4,6.3,1.1,7.4-0.9
				c0.2-0.3,0.5-1.1,0.4-1.4c-0.9-3.3-6.7-7.9-7.8-7.3C35.5,59,35.2,64.5,35.8,67.3z"/>
			<path class="st0" d="M73,104.1c0-2.4-0.3-5-1.3-7.5c-0.3-0.8-0.8-1.6-0.7-2.3c0.4-4.2-1-8.2-1.6-12.3c-0.3-1.9-0.3-3.8-0.2-5.7
				c0.2-4.8,0.8-10.1,0.9-14.8c0-2,0-4.1-0.4-5.9c-1-4.6-0.3-9.6,0.1-14.3c0.2-3.1,0.8-6.5,1-9.5c0.1-1.3-0.1-3,0-4.5
				c0.3-2.8,0.8-5.8,1.2-8.5c0.3-2.7,0.7-5.7,1.2-8.7c0.3-1.9,1.1-4.1,1.8-6.1c0.3-0.9,1.1-1.4,2.4-1.5c2.3-0.3,4.4-0.7,6.7-0.8
				c3.3-0.2,5.5,1.2,5.5,3.7c0,3.4-0.1,6.8-0.3,10.3c-0.4,5.3-1.4,10.9-1.7,16.2c-0.2,3.9-0.1,8.1-0.2,12.2
				c-0.1,6.7-0.2,13.6-0.2,20.2c0,6.2,0.4,12.6,0.9,18.9c0.3,4.3-0.1,8.6,0.4,12.8c0.6,4.9,1.5,10,2.4,14.9c0.4,2.2,0.9,4.6,1.6,6.9
				c1,3.7,1.8,7.4,3,11.1c0.9,2.7,1.9,5.3,2.7,7.7c0.2,0.7,0.7,1.4,1.1,2c0.6,0.8,1.2,2,2.8,1.8c2-0.3,3.9-0.8,4.8-2.4
				c2.8-4.9,3.4-10.8,3.6-16.2c0-0.6,0-1.3-0.2-1.9c-0.4-1.5-0.6-1.9-2.6-2.2c-2.2-0.3-3.9-2.1-3.6-3.8c0.3-1.4,2.4-2.9,4.4-2.9
				c1.3,0,2.3,0.6,2.8,1.5c1.3,2.2,2.8,4.8,3,7.7c0.1,1.2,0.5,2.5,0.7,3.7c0.7,4.7-0.1,10.1-2,14.6c-0.7,1.6-1.5,3.1-3.4,4.2
				c-1.5,0.9-2.7,2-4,3c-1.8,1.4-3.6,1.8-6.1,1.6c-4.9-0.4-8.3-2.8-11.2-5.9c-3.1-3.2-5.3-7.2-7.1-10.9c-3.5-7-6.4-15-8-22.3
				C72.8,107.1,73,105.6,73,104.1z"/>
			<path class="st0" d="M146.8,109.1c0,1-0.2,2.3-0.2,3.1c0,2.6,0.1,6.2-1.4,8.2c-0.4,0.5-0.8,1.8-0.9,2.7c-1,5.3-3.9,8.7-7.1,11
				c-2.7,1.9-9.8,0.7-11.9-3.8c-1.6-3.4-3-6.6-3.7-10.4c-0.6-3.5-1.8-6.7-2.4-9.9c-0.5-2.5-0.8-5-1.1-7.5c-0.1-0.9-0.1-2-0.3-3.1
				c-0.4-2.6,0-6.3-0.6-8.8c-0.7-3.3-0.5-7.5-0.4-10.7c0.1-1.8,0.1-3.9,0.1-5.7c0-3.7,0-7.5,0.4-10.8c0.1-0.7,0.1-1.1,0.1-1.6
				c-0.4-3.2-0.2-6.6,0.2-9.7c5.1-0.2,10.2-0.4,15.3-0.5c-0.2,3.3-0.3,6.8-0.5,10.3c-0.1,1.9-0.3,4-0.4,6.1
				c-0.2,6.5-0.6,13.1-0.5,19.5c0,6.7,0.8,13.7,1.3,20.5c0.4,4.8,1.3,9.8,2.5,14.4c0.3,1.1,0.7,2.3,1.3,3.2c0.9,1.3,2,1.2,2.7-0.5
				c1.1-2.7,2.2-5.7,2.9-8.7c0.4-1.9-0.1-4.2-0.2-6.1c0-0.5-0.5-1-0.8-1.3c-0.8-0.7-0.9-2-0.7-2.7c0.3-1.2,1.1-1.7,1.8-1.9
				c1.9-0.4,3.1,0.7,3.9,2.9C146.5,107.7,146.9,108.6,146.8,109.1z"/>
			<path class="st0" d="M169.2,63.6c1.7,7.2,3.5,14.5,5.2,21.6c1.6,6.4,3.2,12.8,4.6,19.3c0.4,1.9,0.8,3.8,1,5.3
				c0.1,0.8,0.6,2.9,0.6,2.9c0.2,0,1.8-4.7,2.5-6.8c1.5-4.9,3-10.1,4.3-15.1c2.1-7.7,4-16,6.4-23.4c0.3-1,0.6-2.3,1-3.3
				c0.8-2.2,0.6-4.5-0.2-6.7c-0.2-0.5-0.5-1.2-0.8-1.7c-0.5-0.8-0.5-2.1,0.2-3.1c0.6-0.8,1.6-0.7,2.6-0.7c2.1,0.1,4.5,0.1,6.3,0.4
				c0.5,0.1,1.5,0,2,0.2c0.6,0.2,1.2,0.7,1.4,1.2c0.4,0.9-0.4,1.3-0.8,1.7c-0.7,0.7-1.4,1.4-2,2.2c-1.1,1.5-2.2,3.3-3.2,5
				c-0.4,0.7-0.7,1.4-1,2.2c-2.7,7.5-4.6,16.7-6.9,24.9c-1.6,5.6-3.3,11.3-4.9,17c-1.8,6.5-4.9,13.8-5.6,19.4c0,0.1-0.1,0.6-0.2,0.9
				c-0.5,3.3-4.1,5-7.2,4.7c-0.5,0-1-0.2-1.3-0.1c-1.3,0.4-2.5-0.3-3.3-1.8c-0.8-1.5-1.3-3.1-1.4-5c-0.2-3.2-1.2-6.6-2.5-9.4
				c-1.4-3-2.2-6.2-2.8-9.6c-0.4-2.4-1.3-4.7-2-7c-1.7-5.6-4-11.3-5.1-17.1c-0.9-4.5-1.9-9.3-3.7-13.7c-1.2-2.8-2.4-5.9-2.6-9.2
				c-0.1-1-0.5-2.2-0.9-3.1c-0.9-1.7-2.7-1.6-4-1.5c-0.8,0-1.6,0.5-2.1,0.6c-1.5,0.5-2.5-0.1-2.8-1c-0.3-1,0.1-2.9,1-3.5
				c1.1-0.8,2.7-1.9,4.3-1.6c1.8,0.3,3.5-0.1,4.9-0.6c0.9-0.3,2.1-0.5,3,0.2c0.4,0.3,1.3,0.4,1.6,0.3c1.8-0.5,4.4-0.7,6.3-1
				c2-0.2,4.1-0.2,6-0.2c1.9,0,4.1,0.5,6-0.2c1.3-0.5,2.1,0.5,2.2,1.9c0.2,1.9-1.2,3.6-3.3,4.1c-1.1,0.2-2.6,0.7-3.7,0.8
				c-0.2,0-0.7,0.3-0.8,0.5C166.8,56.1,168.5,60.7,169.2,63.6z"/>
			<path class="st0" d="M237,108.6c-0.1,1-0.4,2.3-0.5,3.1c-0.3,2.6-0.6,6.2-2.2,8c-0.4,0.5-1,1.7-1.2,2.5
				c-1.5,5.2-4.7,8.2-8.2,10.2c-2.9,1.7-9.9-0.3-11.5-5c-1.2-3.6-2.3-6.9-2.5-10.8c-0.2-3.5-1.1-6.8-1.3-10c-0.2-2.5-0.3-5-0.3-7.6
				c0-0.9,0.1-2,0-3.1c-0.1-2.6,0.6-6.2,0.3-8.8c-0.4-3.3,0.3-7.5,0.7-10.7c0.3-1.8,0.5-3.8,0.7-5.7c0.3-3.7,0.7-7.5,1.5-10.7
				c0.2-0.7,0.2-1,0.2-1.5c0-3.2,0.5-6.6,1.2-9.7c5.1,0.3,10.2,0.7,15.3,1.1c-0.5,3.3-1.1,6.7-1.5,10.2c-0.3,1.9-0.7,4-1,6
				c-0.8,6.4-1.9,13-2.5,19.3c-0.7,6.7-0.6,13.7-0.8,20.6c-0.1,4.8,0.3,9.9,1,14.6c0.2,1.2,0.5,2.3,1,3.3c0.8,1.4,1.8,1.4,2.8-0.2
				c1.4-2.6,2.8-5.5,3.8-8.3c0.6-1.8,0.4-4.1,0.4-6c0-0.5-0.4-1.1-0.7-1.4c-0.7-0.8-0.7-2.1-0.4-2.8c0.4-1.1,1.2-1.6,1.9-1.7
				c1.9-0.2,3,1,3.6,3.3C236.9,107.2,237.1,108.1,237,108.6z"/>
			<path class="st0" d="M259.1,92.6c-1.1,7.5-1.1,15.5-0.7,23.2c0.2,3.9,0.9,8.1,2.3,11.9c1.7,4.8,6.6,7.7,11.5,6.5
				c2.9-0.7,5.1-2.5,6.7-5.1c2.3-3.9,4.6-8.6,4.6-12.9c0-1,0-2-0.6-2.8c-0.4-0.6-0.9-1.3-1.3-2c-1.1-2-0.1-4.2,2.5-4.3
				c3.3-0.1,5.7,1.5,4.1,5.5c-0.5,1.3-0.8,2.9-1,4.2c-0.6,4.4-1.5,9.3-3.2,13c-0.4,0.8-0.9,1.7-1.5,2.3c-2.1,2-4,5.1-6.8,6.5
				c-2.9,1.3-6.3,1.2-9.3,0.7c-0.3,0-0.7-0.2-1.1-0.3c-5.9-0.5-11.1-3.8-15-7.8c-0.9-0.9-1.3-2-1.8-3.1c-2.3-4.9-3.8-10.4-4.4-15.8
				c-0.4-3.6-0.2-7.3-0.5-10.9c-0.4-3.8,0.2-7.9,0.6-11.4c0.1-0.8-0.3-1.7-0.2-2.6c0.3-5.6,1.7-11.3,4.2-16.2
				c0.4-0.8,0.9-1.7,1.1-2.5c1.2-4.2,3.8-7.8,6.8-11c0.6-0.7,1.1-1.5,1.7-2.1c0.4-0.5,0.9-1.1,1.5-1.5c2.9-1.5,5.8-3.4,8.9-4.7
				c3.5-1.5,7.4-1.2,11.1-0.5c4.3,0.8,8.3,2.3,11.8,4.6c3,2,4.9,4.6,5.9,7.8c0.9,2.5,0.7,5.4,0.5,7.9c-0.4,4.2-0.3,8.8-2,12.8
				c-1,2.3-2.4,3.1-4.8,3c-1.1-0.1-2.5-0.2-3.6-0.5c-3.3-0.9-7.1-1.1-10.7-1.2c-3,0-6.2,0-9.3,0.1c-1.7,0-4.5-0.5-5.4-0.1
				C260,83.9,259.5,89.4,259.1,92.6z M286.8,60.6c0.1-1,0.1-2.1,0.1-3.3c0.1-2.2-0.4-2.8-2.7-3.4c-1-0.3-2.1-0.3-2.9-0.5
				c-0.9-0.2-2.2-0.2-3.2-0.5c-2.4-0.8-4.3-0.1-5.7,1.8c-0.6,0.8-1.4,1.6-2,2.4c-3.8,5.1-5.8,12-7.3,18.3c-0.5,2.2-0.3,2.5,2,2.4
				c2.3-0.1,4.9-0.5,7.2-0.1c3,0.5,6.2,0.3,9.2,0.8c2.3,0.4,2.9,0.1,3.3-1.9c0.5-2.5,0.8-5,1.1-7.5c0.4-2.8,1.5-8.1,1-8.6
				C287,60.5,286.8,60.6,286.8,60.6z"/>
			<path class="st0" d="M307.5,60.9c-0.6,0-1,0-1.4,0c-1.6-0.2-2.6-1.4-2.5-2.7c0.2-2.1,1.4-3.3,3-3.1c3.6,0.4,7.1,1,10.6,1.5
				c1.8,0.2,3.6,0.5,5.1,0.7c0.6,0.1,1.1,0.2,1.6,0.4c3.1,0.9,3.4,2.3,3.6,5.7c0,0.7,0,2,0.1,2.1c0.5,0.3,4.8-1.3,7.1-1.9
				c4.2-1.2,8.7,1.7,11.3,3.2c0.1,0.1,0.5,0.4,0.8,0.3c0.3-0.1,0.8-0.8,1-1.2c0.3-0.6,0.6-1.1,0.9-1.8c0.8-1.6,1.8-2.2,2.5-1.9
				c1.1,0.5,1.4,2.2,1,3.7c-0.4,1.5-1,3.1-1.4,4.5c-0.4,1.7-0.6,3.9-1,5.6c-0.4,1.6-0.8,3.4-1.3,5c-0.4,1.5-0.9,2.9-1.5,4
				c-0.7,1.5-1.9,1.8-2.8,0.4c-0.6-0.9-1-2.3-0.8-3.6c0.4-2.8,0.7-5.9,1-8.6c0.3-2.5,0-3.5-2.1-4.4c-5.8-2.4-13.7,0.9-15.4,5.5
				c-0.1,0.3-0.3,0.8-0.4,1.2c-0.6,4.1-1.2,8.2-1.8,12.1c-0.4,2.9-0.9,5.9-1.2,8.6c-0.3,3-1,6.1-1.3,9.1c-0.4,3.2-0.6,6.6-1.1,10
				c-0.8,5.4-1.8,10.9-2.7,16.2c-0.4,2.3-0.1,2.7,1.7,3.4c0.8,0.3,1.9,0.8,2.8,1.3c0.5,0.3,1,0.9,1.3,1.4c0.7,1.3-0.1,2.6-1.3,2.6
				c-2.2,0-4.6-0.4-6.6-1.3c-0.7-0.3-1.4-0.4-2.1-0.8c-2.1-1.2-4.6-1.7-7-1c-0.8,0.2-1.3,0.1-2,0.1c-1.4-0.1-3.2,0.2-4.8,0.1
				c-1-0.1-2.4-0.3-3.4-0.6c-0.9-0.3-1.9-1.7-1.6-2.3c0.3-0.6,1.1-1.5,1.7-1.7c1.2-0.4,2.9-0.3,4.3-0.4c1.4-0.1,1.9-0.3,2.1-2
				c0.5-4.1,1-8.6,1.4-12.5c0.2-2.7,0.5-5.7,0.9-8.4c0.3-2.7,0.5-5.3,0.8-7.9c0.4-2.9,0.7-5.7,1.2-8.4c0.7-3.5,1.1-7.4,1.2-10.8
				c0-1.2,0.4-2.6,0.7-3.9c0.1-0.6,0.2-1.4,0.3-2.2c0.3-3.5,0.5-7.3,1-10.9c0.1-1.2,0.9-4,0.7-4.3C311.6,60.6,308.8,61,307.5,60.9z"
				/>
			<path class="st0" d="M372.7,129c-0.3-2.5-0.7-5.5-1.4-8.1c-0.5-2-1.5-3.8-3-5.3c-1.9-2-3.8-4.1-5.6-6c-2.4-2.6-4-6.3-5.4-9.3
				c-0.5-0.9-0.9-2.3-1.3-3.4c-1.2-3.2-1.3-6.6-0.5-10.1c0.6-3.1,0.9-6.6,2.7-9.5c1.9-3.1,4.8-5.4,8.2-7.3c2-1.1,4.3-2.3,6.6-3
				c0.8-0.2,1.5-0.4,2.3-0.4c1.6-0.1,3.7-0.4,5.2-0.4c0.5,0,1.1,0,1.6,0.2c2.4,0.6,5,1.7,7.6,2.8c0.9,0.4,1.8,0.2,2.6-0.5
				c1-1,2.4-1.8,3.4-2.6c0.8-0.6,1.8-1.1,2.8-0.5c0.8,0.6,1,1.8,0.6,2.8c-0.5,1.3-1.2,2.6-1.7,4c-0.4,1.1-0.9,2.1-1.3,3.3
				c-0.7,2-1.7,4.1-3.6,5.2c-0.6,0.4-1.1,1.1-2.2,0.6c-0.7-0.3-1.1-1.2-1-2c0.1-0.9,0.2-2.1,0.4-2.9c0.8-3.3,0.1-4.5-3.7-5.7
				c-4.3-1.4-8.4-0.7-11.3,2.6c-1.7,1.9-3.1,3.8-3.1,6.4c0,1.9-0.8,4.1-0.9,5.8c-0.1,0.8-0.1,1.7,0.1,2.5c1,3.2,2.1,6.8,4,9.6
				c2.8,4.2,5.6,8.6,8.3,12.9c2.2,3.5,2.8,7.5,3.1,11.5c0,0.1,0,0.1,0,0.2c0.6,4.2-0.5,8.2-1.5,12.1c-1,3.7-3.2,6.5-6.3,8.9
				c-1.8,1.4-3.8,2.5-6.1,3.3c-4.2,1.3-8.3,2.5-12.8,1.8c-5.8-0.9-10.7-5-13.6-9.6c-0.4-0.6-0.5-1.5-0.7-2.2c-0.5-1.3-1-2.7-1.3-4.1
				c-0.6-2.5-1.8-5.6-3.6-7.3c-0.3-0.2-0.4-1.3-0.3-1.6c0.2-0.6,1.2-0.5,1.9-0.2c2.7,1.1,6.2,1,9,1.2c0.3,0,1.1,0.1,1.5,0.3
				c0.8,0.5,1.5,1.2,1.9,1.8c0.6,0.9-0.3,1.5-1.1,2.1c-1.3,0.9-2.6,1.8-2.9,3.7c-0.4,2.4-0.5,4.7,0.8,6.8c1.8,3.1,4.7,5.4,8.7,5.3
				c2.7,0,5.6,0,8.3-1.5c2.3-1.3,3.9-3.3,4.2-5.7c0.1-0.5,0.2-1.1,0.4-1.9C373,133.8,373,131.3,372.7,129z"/>
		</g>
	</g>
</g>
</svg>
